<svg width="166" height="166" viewBox="0 0 166 166" fill="none" xmlns="http://www.w3.org/2000/svg">
<path d="M83 165.361C128.563 165.361 165.5 128.425 165.5 82.8613C165.5 37.2978 128.563 0.361328 83 0.361328C37.4365 0.361328 0.5 37.2978 0.5 82.8613C0.5 128.425 37.4365 165.361 83 165.361Z" fill="white"/>
<path d="M99.9277 63.4013C97.8142 55.2886 102.235 49.5446 98.1219 39.7923C95.7042 35.2434 90.3568 29.9901 85.0218 34.1479C83.9619 35.0983 83.3255 36.4253 83.2236 37.8431C79.1045 67.3056 74.4809 56.9677 67.1982 71.1624C66.6266 72.2662 65.9046 74.6776 64.6583 74.5949C59.873 74.3601 49.1386 75.6442 42.9316 72.3107C28.0614 85.6048 50.3251 97.1532 41.4066 110.416C49.0019 109.84 62.4929 109.715 65.2086 111.487C65.2086 111.487 82.5599 127.591 102.5 115.753C122.441 103.915 130.463 75.0862 120.456 71.2212C115.622 69.3455 110.536 68.212 105.37 67.8291C102.792 67.638 100.581 65.9018 99.9277 63.4013Z" fill="#F4F4F4"/>
<path opacity="0.05" d="M84.8667 91.8294C84.7203 87.146 88.2207 83.6579 89.9891 82.4993L88.8915 91.8294L85.9644 99.696L84.8667 105.367L89.9891 111.039L88.8915 119.82H84.8667C82.9641 115.722 84.0739 112.258 84.8667 111.039C78.7198 102.989 82.3055 94.8785 84.8667 91.8294Z" fill="#4A4A4A"/>
<path d="M40.8297 111.617C46.3049 110.312 55.5175 110.386 61.4546 110.872" stroke="#4A4A4A" stroke-width="2" stroke-linecap="round" stroke-linejoin="round"/>
<path d="M102.15 66.8734C95.1449 60.6981 102.759 51.1656 98.9515 41.5576C96.4708 35.2162 90.2241 31.3741 84.752 34.8136C84.0056 35.3052 83.3901 35.9864 82.9742 36.7745C82.5577 37.5732 82.3418 38.4573 82.3625 39.353C82.3813 65.9895 74.4133 55.4876 65.5747 74.3703C65.5747 74.3703 58.7842 76.5594 48.2613 74.189M44.6286 73.1064L43.1651 72.3746" stroke="#4A4A4A" stroke-width="2" stroke-linecap="round" stroke-linejoin="round"/>
<path d="M125.464 79.1849C124.634 74.5845 122.159 71.8545 118.983 70.2434C115.134 68.2867 109.973 68.6802 105.227 67.8652" stroke="#4A4A4A" stroke-width="2" stroke-linecap="round" stroke-linejoin="round"/>
<path d="M85.8131 120.13C81.0282 119.669 68.5002 119.281 63.6309 109.556" stroke="#4A4A4A" stroke-width="2" stroke-linecap="round" stroke-linejoin="round"/>
<path d="M111.87 96.778L102.074 104.64C102.074 104.64 96.1787 103.737 92.5661 108.162C92.1531 108.67 89.3808 110.248 89.1189 110.753C86.7125 115.42 88.4451 124.485 95.0364 123.062C100.647 121.86 107.574 120.389 112.47 118.15C115.447 116.798 117.604 113.045 117.385 108.938" fill="#F4F4F4"/>
<path d="M111.87 96.778L102.074 104.64C102.074 104.64 96.1787 103.737 92.5661 108.162C92.1531 108.67 89.3808 110.248 89.1189 110.753C86.7125 115.42 88.4451 124.485 95.0364 123.062C100.647 121.86 107.574 120.389 112.47 118.15C115.447 116.798 117.604 113.045 117.385 108.938" stroke="#4A4A4A" stroke-width="2" stroke-linecap="round" stroke-linejoin="round"/>
<path d="M119.947 83.1073L112.478 85.5003C112.478 85.5003 94.7085 87.7974 88.8116 92.4234C88.1836 92.9208 87.6066 93.4746 87.0814 94.074C82.6297 99.3422 84.5121 109.308 91.2041 109.788C96.2309 110.153 99.2752 108.082 112.978 106.491C116.394 106.087 120.884 104.195 122.462 101.911C125.945 96.8434 124.541 90.9753 121.77 85.482C120.69 83.3378 121.515 85.2 118.855 82.7196" fill="#F4F4F4"/>
<path d="M119.947 83.1073L112.478 85.5003C112.478 85.5003 94.7085 87.7974 88.8116 92.4234C88.1836 92.9208 87.6066 93.4746 87.0814 94.074C82.6297 99.3422 84.5121 109.308 91.2041 109.788C96.2309 110.153 99.2752 108.082 112.978 106.491C116.394 106.087 120.884 104.195 122.462 101.911C125.945 96.8434 124.541 90.9753 121.77 85.482C120.69 83.3378 121.515 85.2 118.855 82.7196" stroke="#4A4A4A" stroke-width="2" stroke-linecap="round" stroke-linejoin="round"/>
<path d="M125.808 80.5385C126.015 83.3512 125.532 86.1625 124.424 88.749C123.688 90.125 122.628 91.2911 121.324 92.1649C120.02 93.0387 118.539 93.5696 116.99 93.72C113.803 94.0918 94.0202 95.6865 94.0202 95.6865C88.4499 95.4131 85.7091 87.3451 90.4194 80.9793C90.8324 80.4714 91.3185 80.0102 91.844 79.6263C96.0619 76.2654 102.998 75.2799 108.435 75.6329" fill="#F4F4F4"/>
<path d="M125.465 79.185C125.914 82.9906 125.543 86.163 124.424 88.749C123.688 90.125 122.628 91.2911 121.324 92.1649C120.02 93.0387 118.539 93.5696 116.99 93.72C113.803 94.0918 94.0202 95.6865 94.0202 95.6865C88.4499 95.4131 85.7091 87.3451 90.4194 80.9793C90.8324 80.4714 91.3185 80.0102 91.844 79.6263C96.0619 76.2654 102.998 75.2799 108.435 75.6329" stroke="#4A4A4A" stroke-width="2" stroke-linecap="round" stroke-linejoin="round"/>
<path d="M65.5316 74.3575C65.2657 75.1636 65.1057 76.0073 65.064 76.8569" stroke="#4A4A4A" stroke-width="2" stroke-linecap="round" stroke-linejoin="round"/>
<path opacity="0.05" d="M92.9278 58.8281C95.5622 45.217 90.7324 36.5698 87.9883 33.9476C102.624 35.7039 100.672 51.2664 97.8673 58.8281L100.063 65.0481L103.539 68.1582L118.357 69.6217C126.846 73.427 124.699 84.9891 122.565 90.2944C125.931 101.125 119.943 105.052 116.528 105.662C118.723 115.98 109.393 120.206 104.453 121.029C110.747 118.687 112.198 112.98 112.137 110.418L100.063 108.955L113.783 105.662C116.564 103.174 117.991 99.1367 118.357 97.4293L100.063 94.6851L118.357 92.1239C121.87 87.0014 119.821 79.7447 118.357 76.7566L103.539 75.476C95.6354 74.5978 93.1717 64.0115 92.9278 58.8281Z" fill="#4A4A4A"/>
</svg>
