<svg width="150" height="150" viewBox="0 0 150 150" fill="none" xmlns="http://www.w3.org/2000/svg">
<g clip-path="url(#clip0_1707_1298)">
<path d="M126.13 72.8449C126.559 72.0866 126.783 71.2294 126.78 70.3578C126.78 68.2217 124.93 67.5598 123.43 67.5598C120.14 67.5598 117.68 67.4696 117.18 68.5627C116.18 70.799 118.02 80.9579 117.96 81.0882L125.34 79.6642" fill="#ECECEC"/>
<path d="M126.13 72.8449C126.559 72.0866 126.783 71.2294 126.78 70.3578C126.78 68.2217 124.93 67.5598 123.43 67.5598C120.14 67.5598 116.5 67.9069 116 69C115 71.2364 118.02 80.9579 117.96 81.0882L125.34 79.6642" stroke="#4A4A4A" stroke-width="2" stroke-linecap="round" stroke-linejoin="round"/>
<path d="M27.34 96.0307H26.76C23.17 96.0307 20.25 104.615 20.25 113.671C20.25 122.727 23.17 130.087 26.76 130.087H33.37C36.37 130.087 40.0599 124.07 40.7899 116.88C40.9099 115.606 32.18 116.78 32.18 115.406C32.22 106.26 30.96 96.0307 27.34 96.0307Z" fill="#DEDEDE"/>
<path d="M92.35 95.7599H91.75C88.04 95.7599 85.0201 104.505 85.0201 113.731C85.0201 122.957 88.02 130.458 91.75 130.458H98.58C101.74 130.458 104.35 125.063 105.11 117.782C105.24 116.489 97.63 117.782 97.63 116.449C97.63 107.162 96.07 95.7599 92.35 95.7599Z" fill="#DEDEDE"/>
<path d="M96.22 112.076C96.22 121.002 93.76 128.232 90.64 128.232C87.52 128.232 85.06 121.002 85.06 112.076C85.06 103.151 87.53 94.6468 90.64 94.6468C93.75 94.6468 96.22 103.151 96.22 112.076Z" fill="#ECECEC"/>
<path d="M85.7899 119.708C86.7899 125.725 89.1399 129.957 91.7899 129.957M106.06 117.091C105.43 124.471 102.81 129.997 99.7 129.997H91.89C89.66 129.997 87.72 127.229 86.55 122.977" stroke="#4A4A4A" stroke-width="2" stroke-linecap="round" stroke-linejoin="round"/>
<path opacity="0.07" d="M91.11 122.737C92.79 122.737 94.11 118.725 94.11 113.711C94.11 108.697 92.75 104.685 91.11 104.685C89.47 104.685 88.06 108.697 88.06 113.711C88.06 118.725 89.42 122.737 91.11 122.737Z" fill="#4A4A4A"/>
<path opacity="0.06" d="M85.0201 122.626H104.58L105.11 117.161L85.56 114.784L85.0201 122.626Z" fill="#4A4A4A"/>
<path d="M95.92 115.837C95.63 120.45 94.48 124.331 92.92 126.437" stroke="#4A4A4A" stroke-width="2" stroke-linecap="round" stroke-linejoin="round"/>
<path d="M117.4 96.0307H116.83C113.24 96.0307 110.32 104.615 110.32 113.671C110.32 122.727 113.24 130.087 116.83 130.087H123.43C126.43 130.087 130.18 124 130.91 116.86C131.04 115.586 122.52 117.652 122.52 116.338C122.48 107.182 121 96.0307 117.4 96.0307Z" fill="#DEDEDE"/>
<path d="M121.03 112.167C121.03 121.292 118.8 128.693 115.96 128.693C113.12 128.693 110.9 121.292 110.9 112.167C110.9 103.041 113.13 94.3359 115.96 94.3359C118.79 94.3359 121.03 103.051 121.03 112.167Z" fill="#ECECEC"/>
<path d="M116.83 95.9003C113.24 95.9003 110.32 104.485 110.32 113.54C110.32 122.596 113.24 129.957 116.83 129.957H124.65C126.88 129.957 128.8 127.189 129.98 122.937" stroke="#4A4A4A" stroke-width="2" stroke-linecap="round" stroke-linejoin="round"/>
<path opacity="0.07" d="M116.11 122.737C117.79 122.737 119.11 118.725 119.11 113.711C119.11 108.697 117.74 104.685 116.11 104.685C114.48 104.685 113.06 108.697 113.06 113.711C113.06 118.725 114.43 122.737 116.11 122.737Z" fill="#4A4A4A"/>
<path opacity="0.06" d="M111.57 122.967H128.71L130.71 115.506H111.38L111.57 122.967Z" fill="#4A4A4A"/>
<path d="M120.56 119.036C120.254 121.677 119.34 124.211 117.89 126.437" stroke="#4A4A4A" stroke-width="2" stroke-linecap="round" stroke-linejoin="round"/>
<path d="M20.4199 103.833C17.7199 102.288 18.6699 87.1053 20.4199 81.9106C21.1799 79.6742 21.97 79.2029 25.84 74.1586C27.03 70.799 30.42 56.2477 35.97 53.8409C46.45 49.3581 103.84 50.6017 106.77 54.242L119.94 73.5368C119.94 73.5368 126.78 76.7058 129.11 78.2301C129.4 81.5897 133.58 81.1384 135.5 91.0365C136.86 98.0565 135.61 107.674 134.77 112.698C134.612 113.644 134.122 114.501 133.389 115.116C132.655 115.73 131.726 116.061 130.77 116.048H30.48" fill="#FCFCFC"/>
<path opacity="0.05" d="M20.72 82.4422L45.5201 85.2902C49.13 85.6713 52.8101 88.4091 62.5201 95.3689C65.37 97.3746 66.14 100.092 96 100.794C105.996 101.103 115.997 100.394 125.85 98.6783C127.448 98.3713 128.908 97.5637 130.02 96.3717C134.02 92.1798 135.88 93.7543 135.88 93.7543L135.55 108.566C135.55 108.566 135.55 113.31 132.9 114.453C130.25 115.596 123.52 116.218 123.52 116.218L26.5201 116.128C26.5201 116.128 19.61 106.099 19.61 93.9047C19.61 81.7101 20.72 82.4422 20.72 82.4422Z" fill="#4A4A4A"/>
<path d="M130.3 86.7243C127.36 87.6168 122.81 88.1483 121.04 89.0609C119.26 90.3233 117.667 91.8326 116.31 93.5437C114.43 95.7098 96.5201 96.9834 96.5201 96.9834C96.5201 96.9834 75.2201 96.3115 72.5201 93.0523C71.645 91.8705 70.535 90.8836 69.2601 90.154C66.4701 88.5695 60.4301 88.74 57.2601 87.1455C52.3301 85.3303 52.59 79.6542 52.59 79.6542C52.59 79.6542 64.54 80.9579 68.33 81.2086C68.33 81.2086 114.56 82.8031 123.89 79.4536C128.36 78.2201 128.89 78.0396 128.89 78.0396L131.83 83.5052L132.22 84.3576L130.3 86.7243Z" fill="#ECECEC"/>
<path d="M48.42 51.9054L45.31 77.6485L25.11 74.3792C25.11 74.3792 31.4 55.6761 35.97 53.871C40.54 52.0659 48.42 51.9054 48.42 51.9054Z" fill="white"/>
<path opacity="0.06" d="M29.56 61.1717L34.38 77.2173H40.22L34.36 55.8566L29.56 61.1717Z" fill="#4A4A4A"/>
<path opacity="0.06" d="M36.7801 53.0587L44.42 76.3348L47.0301 58.454L48.17 52.4871L36.7801 53.0587Z" fill="#4A4A4A"/>
<path d="M71.1401 90.6053C68.3501 89.0309 60.51 88.7801 57.32 87.2558C52.4 85.4406 52.6501 79.7646 52.6501 79.7646C52.6501 79.7646 64.6501 81.0582 68.3901 81.319" fill="white"/>
<path d="M119.29 80.8175C124.49 79.6943 128.5 78.5811 128.5 78.5811L129.26 80.9178L132.33 84.1771L130.33 86.6741C127.39 87.5667 122.84 88.0882 121.08 89.0108C120.256 89.5091 119.503 90.1162 118.84 90.8159" fill="white"/>
<path d="M75.44 86.0825L76.51 91.0165" stroke="#DEDEDE" stroke-width="2" stroke-linecap="round" stroke-linejoin="round"/>
<path d="M82.01 85.5309L82.62 92.972" stroke="#DEDEDE" stroke-width="2" stroke-linecap="round" stroke-linejoin="round"/>
<path d="M88.22 85.7716L88.81 93.2829" stroke="#DEDEDE" stroke-width="2" stroke-linecap="round" stroke-linejoin="round"/>
<path d="M114.29 86.3833L113.62 91.1569" stroke="#DEDEDE" stroke-width="2" stroke-linecap="round" stroke-linejoin="round"/>
<path d="M108.43 85.8418L107.57 92.8617" stroke="#DEDEDE" stroke-width="2" stroke-linecap="round" stroke-linejoin="round"/>
<path d="M101.99 85.6513L101.45 93.3531" stroke="#DEDEDE" stroke-width="2" stroke-linecap="round" stroke-linejoin="round"/>
<path d="M95.22 85.4006L95.4099 93.6239" stroke="#DEDEDE" stroke-width="2" stroke-linecap="round" stroke-linejoin="round"/>
<path opacity="0.06" d="M52.58 82.2114C52.58 82.2114 77.58 87.9879 95.71 87.6068C124.57 87.7873 129.63 81.8605 129.63 81.8605L129.18 79.3233C129.18 79.3233 106.86 82.9536 95.34 82.5826C83.82 82.2115 52.6501 79.7445 52.6501 79.7445L52.58 82.2114Z" fill="#4A4A4A"/>
<path d="M65.07 115.526L69.93 107.814C70.5704 106.663 71.4938 105.696 72.6123 105.005C73.7308 104.313 75.0072 103.92 76.32 103.863H117.62C118.978 103.896 120.3 104.303 121.443 105.038C122.586 105.774 123.505 106.811 124.1 108.035L128.32 115.526" fill="#E6E6E6"/>
<path d="M128.31 115.526L124.09 108.035C123.494 106.809 122.573 105.772 121.428 105.036C120.284 104.3 118.959 103.894 117.6 103.863H76.31C74.9972 103.92 73.7208 104.313 72.6023 105.005C71.4838 105.696 70.5604 106.663 69.92 107.814L66.7 112.989L74.42 108.647H119.07" fill="#E6E6E6"/>
<path d="M30.69 112.788C30.69 121.573 28.46 128.704 25.69 128.704C22.92 128.704 20.69 121.573 20.69 112.788C20.69 104.003 22.92 95.6095 25.69 95.6095C28.46 95.6095 30.69 103.983 30.69 112.788Z" fill="#ECECEC"/>
<path d="M26.64 96.8229C23.04 96.8229 20.13 105.177 20.13 113.992C20.13 122.807 23.04 129.957 26.64 129.957H34.45C36.68 129.957 38.6099 127.269 39.7899 123.138" stroke="#4A4A4A" stroke-width="2" stroke-linecap="round" stroke-linejoin="round"/>
<path d="M40.88 116.8C40.29 124.301 37.65 129.957 34.51 129.957H30.09" stroke="#4A4A4A" stroke-width="2" stroke-linecap="round" stroke-linejoin="round"/>
<path d="M131.09 116.027C130.61 123.87 127.91 129.957 124.65 129.957H123.03" stroke="#4A4A4A" stroke-width="2" stroke-linecap="round" stroke-linejoin="round"/>
<path opacity="0.07" d="M25.9099 122.737C27.5899 122.737 28.9099 118.725 28.9099 113.711C28.9099 108.697 27.5399 104.685 25.9099 104.685C24.2799 104.685 22.9099 108.697 22.9099 113.711C22.9099 118.725 24.2199 122.737 25.9099 122.737Z" fill="#4A4A4A"/>
<path opacity="0.06" d="M30.33 122.626H39.5L40.38 116.469L31.5 115.907L30.33 122.626Z" fill="#4A4A4A"/>
<path d="M50.49 95.8301H49.9099C46.3099 95.8301 44.56 104.525 44.56 113.581C44.56 122.636 47.49 129.987 51.08 129.987H57.68C60.68 129.987 63.26 124.692 63.99 117.552C64.12 116.278 56.2801 117.552 56.2801 116.208C56.2801 107.112 54.08 95.8301 50.49 95.8301Z" fill="#ECECEC"/>
<path d="M58.38 130.458H51.5399L56.93 115.907C56.93 117.321 65.06 115.977 64.93 117.321C64.22 124.863 61.54 130.458 58.38 130.458Z" fill="#DEDEDE"/>
<path d="M51.05 96.6725C47.45 96.6725 44.5301 105.066 44.5301 113.912C44.5301 122.757 47.45 129.957 51.05 129.957H58.86M65.0201 119.738C64.0201 125.755 61.67 129.997 58.94 129.997H51.13" stroke="#4A4A4A" stroke-width="2" stroke-linecap="round" stroke-linejoin="round"/>
<path opacity="0.07" d="M50.36 122.737C52.04 122.737 53.36 118.725 53.36 113.711C53.36 108.697 52 104.685 50.36 104.685C48.72 104.685 47.31 108.697 47.31 113.711C47.31 118.725 48.67 122.737 50.36 122.737Z" fill="#4A4A4A"/>
<path opacity="0.06" d="M54.95 122.967H62.95L63.44 117.522L55.8 116.088L54.95 122.967Z" fill="#4A4A4A"/>
<path d="M9.00003 129.977H140.76" stroke="#4A4A4A" stroke-width="2" stroke-linecap="round" stroke-linejoin="round"/>
<path d="M130.22 101.416C130.36 100.904 130.641 100.442 131.03 100.082C131.418 99.7274 131.901 99.4939 132.42 99.4103C132.939 99.3208 133.473 99.3798 133.96 99.5808C134.445 99.7974 134.86 100.145 135.16 100.584C135.462 101.023 135.632 101.54 135.65 102.073C135.667 102.607 135.532 103.134 135.26 103.592C134.99 104.047 134.597 104.415 134.125 104.653C133.654 104.891 133.125 104.989 132.6 104.936" fill="#E6E6E6"/>
<path d="M118.7 92.0193C119.35 91.3263 120.102 90.7378 120.93 90.2744C122.69 89.3518 127.7 88.9305 130.67 86.4936" stroke="#4A4A4A" stroke-width="2" stroke-linecap="round" stroke-linejoin="round"/>
<path d="M70.58 90.6855C71.8091 91.2198 72.8902 92.0458 73.73 93.0924C76.38 96.3516 83.11 96.7728 96.33 96.7628C108.21 96.7628 114.48 96.7628 116.33 94.5866C117.08 93.7242 117.9 92.8216 118.68 92.0394" stroke="#4A4A4A" stroke-width="2" stroke-linecap="round" stroke-linejoin="round"/>
<path d="M72.0201 91.5179C68.6501 89.5122 62.6301 90.7858 57.5301 88.6698C56.5557 88.2448 55.6861 87.6105 54.9829 86.8117C54.2796 86.0129 53.7597 85.069 53.46 84.0467C52.87 82.3819 52.9801 79.8748 54.7401 80.0353C58.1101 80.3562 64.45 80.8777 67.66 81.1384C68.1382 81.1828 68.5898 81.3788 68.9494 81.698C69.309 82.0171 69.5579 82.4429 69.66 82.9134L70.59 86.995" stroke="#4A4A4A" stroke-width="2" stroke-linecap="round" stroke-linejoin="round"/>
<path d="M128.35 78.7817C128.35 78.7817 124.44 79.9651 121.35 80.7172C120.787 80.8636 120.286 81.187 119.92 81.6399C119.559 82.0955 119.349 82.6531 119.32 83.2344L119.16 87.7773" stroke="#4A4A4A" stroke-width="2" stroke-linecap="round" stroke-linejoin="round"/>
<path d="M52.43 51.1734L51 74.3091H119.42L106.14 54.1417L52.43 51.1734Z" fill="white"/>
<path d="M69.48 116.138C69.48 116.138 109.99 116.268 126.91 116.208C132.06 116.208 134.73 114.383 135.61 108.606C135.92 106.601 135.37 102.86 135.75 101.416C135.946 100.709 136.063 99.9827 136.1 99.2499C136.181 96.5287 135.979 93.8064 135.5 91.1268C133.62 81.4994 129.92 83.9264 129.18 78.8118C129.137 78.4745 129.01 78.1536 128.81 77.8792C127.29 76.0139 121.81 75.021 119.42 74.3892H51.5301V55.3351" stroke="#4A4A4A" stroke-width="2" stroke-linecap="round" stroke-linejoin="round"/>
<path d="M55.84 116.088H64.84" stroke="#4A4A4A" stroke-width="2" stroke-linecap="round" stroke-linejoin="round"/>
<path d="M35.5301 116.138H43.5301" stroke="#4A4A4A" stroke-width="2" stroke-linecap="round" stroke-linejoin="round"/>
<path d="M18.7701 103.953C16.8701 98.3373 18.97 86.243 20.42 81.9508C21.18 79.7044 21.25 79.4235 25.11 74.3792C26.3 71.0197 30.42 56.328 35.97 53.871C46.45 49.3983 103.84 50.6418 106.77 54.2721L118 71" stroke="#4A4A4A" stroke-width="2" stroke-linecap="round" stroke-linejoin="round"/>
<path d="M42.94 75.8835L45.5399 76.1041L46.87 55.7864" stroke="#4A4A4A" stroke-width="2" stroke-linecap="round" stroke-linejoin="round"/>
<path d="M28.9099 74.6801L32.57 74.9901" stroke="#4A4A4A" stroke-width="2" stroke-linecap="round" stroke-linejoin="round"/>
<path d="M39.46 77.478C38.64 77.478 35.85 77.7488 34.46 77.0468C33.6605 76.7011 32.9792 76.1287 32.4995 75.4001C32.0199 74.6714 31.7629 73.8182 31.76 72.9451C31.76 70.9394 33.62 70.3478 35.11 70.3478C38.46 70.3478 40.86 70.2575 41.36 71.3506C42.0373 72.8955 42.6021 74.4875 43.05 76.1141L45.18 76.2244" fill="#ECECEC"/>
<path d="M39.46 77.478C38.64 77.478 35.85 77.7488 34.46 77.0468C33.6605 76.7011 32.9792 76.1287 32.4995 75.4001C32.0199 74.6714 31.7629 73.8182 31.76 72.9451C31.76 70.9394 33.62 70.3478 35.11 70.3478C38.46 70.3478 40.86 70.2575 41.36 71.3506C42.0373 72.8955 42.6021 74.4875 43.05 76.1141H45.3772" stroke="#4A4A4A" stroke-width="2" stroke-linecap="round" stroke-linejoin="round"/>
<path d="M39.4099 57.0601L37.11 67.0886" stroke="#4A4A4A" stroke-width="2" stroke-linecap="round" stroke-linejoin="round"/>
<path d="M132.59 105.287C131.961 104.968 131.465 104.438 131.187 103.789C130.909 103.14 130.867 102.413 131.07 101.737C131.267 101.06 131.691 100.472 132.27 100.072C132.86 99.6792 133.565 99.4988 134.27 99.5608C134.68 99.6552 135.061 99.8479 135.38 100.122" stroke="#4A4A4A" stroke-width="2" stroke-linecap="round" stroke-linejoin="round"/>
<path d="M59.22 101.416C59.2779 100.989 59.4586 100.588 59.74 100.263C60.0221 99.9326 60.3938 99.6922 60.81 99.5708C61.4804 99.4965 62.1552 99.6674 62.71 100.052C63.1241 100.339 63.4532 100.732 63.6626 101.19C63.8721 101.649 63.954 102.156 63.8997 102.657C63.8454 103.159 63.6569 103.636 63.3542 104.039C63.0514 104.442 62.6457 104.755 62.18 104.946C61.9234 105.006 61.6566 105.006 61.4001 104.946" fill="#E6E6E6"/>
<path d="M59.22 101.416C59.2779 100.989 59.4586 100.588 59.74 100.263C60.0221 99.9326 60.3938 99.6922 60.81 99.5708C61.4804 99.4965 62.1552 99.6674 62.71 100.052C63.1241 100.339 63.4532 100.732 63.6626 101.19C63.8721 101.649 63.954 102.156 63.8997 102.657C63.8454 103.159 63.6569 103.636 63.3542 104.039C63.0514 104.442 62.6457 104.755 62.18 104.946C61.9234 105.006 61.6566 105.006 61.4001 104.946" stroke="#4A4A4A" stroke-width="2" stroke-linecap="round" stroke-linejoin="round"/>
<path opacity="0.06" d="M128.31 115.526L124.09 108.035C123.494 106.809 122.573 105.772 121.428 105.036C120.284 104.3 118.959 103.894 117.6 103.863H76.31C74.9972 103.92 73.7208 104.313 72.6023 105.005C71.4838 105.696 70.5604 106.663 69.92 107.814L65.06 115.526L74.06 109.83C75.5588 108.888 77.2913 108.388 79.06 108.386H115.74C117.799 108.384 119.802 109.06 121.44 110.311L128.31 115.526Z" fill="#4A4A4A"/>
<path d="M126.28 111.906L124.04 108.035C123.447 106.809 122.529 105.77 121.386 105.034C120.242 104.298 118.918 103.893 117.56 103.863C117.56 103.863 103.05 104.244 98.2701 104.244C92.7701 104.244 76.2701 103.863 76.2701 103.863C74.959 103.922 73.6846 104.316 72.568 105.007C71.4514 105.699 70.5296 106.665 69.89 107.814L64.89 115.937" stroke="#4A4A4A" stroke-width="2" stroke-linecap="round" stroke-linejoin="round"/>
<path d="M115.93 81.5797C104.57 82.5826 85.93 82.2416 73.62 81.5797" stroke="#4A4A4A" stroke-width="2" stroke-linecap="round" stroke-linejoin="round"/>
<path opacity="0.06" d="M63.87 51.5143L74.97 74.3792H89.0399L77.33 50.7421L63.87 51.5143Z" fill="#4A4A4A"/>
<path opacity="0.06" d="M83.81 51.5143L94.9001 74.3792L121.5 75.5L106.1 54.1418L83.81 51.5143Z" fill="#4A4A4A"/>
<path d="M52.1599 99.4604C54.0799 101.877 55.39 108.025 55.39 113.691C55.39 119.357 54.11 124.161 52.23 126.597" stroke="#4A4A4A" stroke-width="2" stroke-linecap="round" stroke-linejoin="round"/>
<path d="M28.22 125.825C28.0654 126.095 27.8916 126.353 27.7 126.597" stroke="#4A4A4A" stroke-width="2" stroke-linecap="round" stroke-linejoin="round"/>
<path d="M27.6599 99.4604C29.5799 101.877 30.89 108.025 30.89 113.691C30.91 116.309 30.6077 118.919 29.99 121.463" stroke="#4A4A4A" stroke-width="2" stroke-linecap="round" stroke-linejoin="round"/>
<path d="M35.47 81.5797C35.47 81.5797 32.58 88.4693 34.64 103.392" stroke="#4A4A4A" stroke-width="2" stroke-linecap="round" stroke-linejoin="round"/>
<path d="M28.89 86.6039L29.29 86.6339" stroke="#4A4A4A" stroke-width="2" stroke-linecap="round" stroke-linejoin="round"/>
<path d="M38.29 87.7071L38.69 87.7571" stroke="#4A4A4A" stroke-width="2" stroke-linecap="round" stroke-linejoin="round"/>
</g>
<defs>
<clipPath id="clip0_1707_1298">
<rect width="133.76" height="81" fill="white" transform="translate(8 50)"/>
</clipPath>
</defs>
</svg>
