<svg width="150" height="150" viewBox="0 0 150 150" fill="none" xmlns="http://www.w3.org/2000/svg">
<path d="M41.5525 129.8H23.0488V85.5713L41.5525 77.1358V129.8Z" fill="#ECECEC" stroke="#4A4A4A" stroke-width="2" stroke-linecap="round" stroke-linejoin="round"/>
<path opacity="0.07" d="M40.7571 129.8H38.0045L37.5336 98.0675H23.0488V87.6644H36.5916L38.8313 75.074H40.7571V129.8Z" fill="#4A4A4A"/>
<path d="M50.0508 91.5264L50.1764 75.5973" stroke="#4A4A4A" stroke-width="2" stroke-linecap="round" stroke-linejoin="round"/>
<path d="M63.8238 91.5264L41.6885 68.2608H27.1187C26.9099 68.2608 26.7211 68.3849 26.6383 68.5766L21.7511 79.8936L17.043 90.7956C16.9284 91.0609 17.0506 91.3689 17.316 91.4835C17.3815 91.5118 17.4521 91.5264 17.5234 91.5264H40.7675" fill="white"/>
<path d="M63.8238 91.5264L41.6885 68.2608H27.1187C26.9099 68.2608 26.7211 68.3849 26.6383 68.5766L21.7511 79.8936L17.043 90.7956C16.9284 91.0609 17.0506 91.3689 17.316 91.4835C17.3815 91.5118 17.4521 91.5264 17.5234 91.5264H40.7675" stroke="#4A4A4A" stroke-width="2" stroke-linecap="round" stroke-linejoin="round"/>
<path d="M38.0673 75.6287H33.8376C33.5486 75.6287 33.3143 75.3944 33.3143 75.1054C33.3143 74.972 33.3653 74.8435 33.4569 74.7464L58.8629 47.8H87.2987L61.0294 75.6287" fill="#E6E6E6"/>
<path d="M38.0673 75.6287H33.8376C33.5486 75.6287 33.3143 75.3944 33.3143 75.1054C33.3143 74.972 33.3653 74.8435 33.4569 74.7464L58.8629 47.8H87.2987L61.0294 75.6287" stroke="#4A4A4A" stroke-width="2" stroke-linecap="round" stroke-linejoin="round"/>
<path d="M63.0179 50.9921L85.9486 70.7307L82.3065 129.8H41.5524L41.2594 73.0541L59.4595 54.4458" fill="#F7F7F7"/>
<path d="M63.0179 50.9921L85.9486 70.7307L82.3065 129.8H41.5524L41.2594 73.0541L59.4595 54.4458" stroke="#4A4A4A" stroke-width="2" stroke-linecap="round" stroke-linejoin="round"/>
<path d="M82.1809 77.9417V129.8H103.667V81.3954L82.1809 68.8782" fill="#E0E1E2"/>
<path d="M82.1809 77.9417V129.8H103.667V81.3954L82.1809 68.8782" stroke="#4A4A4A" stroke-width="2" stroke-linecap="round" stroke-linejoin="round"/>
<path d="M28.0305 129.8H119.377" stroke="#4A4A4A" stroke-width="2" stroke-linecap="round" stroke-linejoin="round"/>
<path d="M121.857 68.2608L133.909 90.7559C134.046 91.0107 133.95 91.3278 133.695 91.4643C133.619 91.5051 133.534 91.5264 133.448 91.5264H100.695" fill="#E6E6E6"/>
<path d="M121.857 68.2608L133.909 90.7559C134.046 91.0107 133.95 91.3278 133.695 91.4643C133.619 91.5051 133.534 91.5264 133.448 91.5264H100.695" stroke="#4A4A4A" stroke-width="2" stroke-linecap="round" stroke-linejoin="round"/>
<path d="M91.9559 129.8H114.049V85.5713H91.9559" fill="#F7F7F7"/>
<path d="M91.9559 129.8H114.049V85.5713H91.9559" stroke="#4A4A4A" stroke-width="2" stroke-linecap="round" stroke-linejoin="round"/>
<path d="M91.9559 91.7148V125.99" stroke="#4A4A4A" stroke-width="2" stroke-linecap="round" stroke-linejoin="round"/>
<path d="M117.723 69.9144L112.511 85.6341L112.396 85.5713V129.8H127.414V89.5839C127.414 89.4987 127.393 89.4147 127.354 89.3394L122.244 79.6685" fill="#E0E1E2"/>
<path d="M117.723 69.9144L112.511 85.6341L112.396 85.5713V129.8H127.414V89.5839C127.414 89.4987 127.393 89.4147 127.354 89.3394L122.244 79.6685" stroke="#4A4A4A" stroke-width="2" stroke-linecap="round" stroke-linejoin="round"/>
<path opacity="0.07" d="M119.397 74.0693L91.9559 78.5382L92.5002 95.3464H112.396L118.361 80.8616L126.744 94.6138L126.598 87.5179L119.397 74.0693Z" fill="#4A4A4A"/>
<path d="M91.7468 75.074L82.652 68.2608H121.154C121.443 68.2608 121.677 68.495 121.677 68.7841C121.677 68.835 121.67 68.8857 121.655 68.9344L114.988 91.1535C114.922 91.3748 114.718 91.5264 114.487 91.5264H89.6578C89.3688 91.5264 89.1345 91.2921 89.1345 91.0031C89.1345 90.9593 89.14 90.9158 89.1508 90.8734L92.0294 79.6162" fill="white"/>
<path d="M91.7468 75.074L82.652 68.2608H121.154C121.443 68.2608 121.677 68.495 121.677 68.7841C121.677 68.835 121.67 68.8857 121.655 68.9344L114.988 91.1535C114.922 91.3748 114.718 91.5264 114.487 91.5264H89.6578C89.3688 91.5264 89.1345 91.2921 89.1345 91.0031C89.1345 90.9593 89.14 90.9158 89.1508 90.8734L92.0294 79.6162" stroke="#4A4A4A" stroke-width="2" stroke-linecap="round" stroke-linejoin="round"/>
<path d="M61.0295 70.8563C63.3242 70.8563 65.1844 68.7993 65.1844 66.2618C65.1844 63.7243 63.3242 61.6673 61.0295 61.6673C58.7347 61.6673 56.8745 63.7243 56.8745 66.2618C56.8745 68.7993 58.7347 70.8563 61.0295 70.8563Z" fill="white"/>
<path opacity="0.07" d="M40.2965 80.6628L60.8515 60.0974L81.6576 81.7303L91.7048 81.5001L96.7598 76.0369L80.9773 66.8583L61.6469 52.3212L40.4326 72.5831L40.2965 80.6628Z" fill="#4A4A4A"/>
<path d="M74.8129 81.8245H48.3657V112.898H74.8129V81.8245Z" fill="white"/>
<path d="M106.692 108.251V114.991H97.1888V104.902C97.1888 103.642 97.6898 102.435 98.5812 101.546C99.4725 100.656 100.681 100.158 101.94 100.161C104.56 100.161 106.686 102.282 106.692 104.902V105.31" fill="white"/>
<path d="M106.692 108.251V114.991H97.1888V104.902C97.1888 103.643 97.6898 102.435 98.5812 101.546C99.4725 100.656 100.681 100.158 101.94 100.161C104.56 100.161 106.686 102.282 106.692 104.902V105.31" stroke="#4A4A4A" stroke-width="2" stroke-linecap="round" stroke-linejoin="round"/>
<path d="M123.668 105.415V114.991H117.629V105.038C117.629 102.547 118.979 100.527 120.643 100.527C122.317 100.527 123.668 102.547 123.668 105.038V105.425" fill="white"/>
<path d="M115.138 70.7307L109.685 85.1631" stroke="white"/>
<path d="M32.3948 99.8362C33.655 99.8362 34.8635 100.337 35.7546 101.228C36.6457 102.119 37.1463 103.328 37.1463 104.588V114.677H27.6433V104.588C27.6433 103.328 28.1439 102.119 29.035 101.228C29.9261 100.337 31.1346 99.8362 32.3948 99.8362Z" fill="white"/>
<path d="M61.0295 70.8563C63.3242 70.8563 65.1844 68.7993 65.1844 66.2618C65.1844 63.7243 63.3242 61.6673 61.0295 61.6673C58.7347 61.6673 56.8745 63.7243 56.8745 66.2618C56.8745 68.7993 58.7347 70.8563 61.0295 70.8563Z" stroke="#4A4A4A" stroke-width="2" stroke-linecap="round" stroke-linejoin="round"/>
<path d="M74.8129 81.8245H48.3657V112.898H74.8129V81.8245Z" stroke="#4A4A4A" stroke-width="2" stroke-linecap="round" stroke-linejoin="round"/>
<path d="M61.5945 85.1841V109.747" stroke="#4A4A4A" stroke-width="2" stroke-linecap="round" stroke-linejoin="round"/>
<path d="M48.3657 98.0675H70.3754" stroke="#4A4A4A" stroke-width="2" stroke-linecap="round" stroke-linejoin="round"/>
<path d="M123.668 105.415V114.991H117.629V105.038C117.629 102.547 118.979 100.527 120.643 100.527C122.317 100.527 123.668 102.547 123.668 105.038V105.425" stroke="#4A4A4A" stroke-width="2" stroke-linecap="round" stroke-linejoin="round"/>
<path fill-rule="evenodd" clip-rule="evenodd" d="M32.3948 99.8362C33.655 99.8362 34.8635 100.337 35.7546 101.228C36.6457 102.119 37.1463 103.328 37.1463 104.588V114.677H27.6433V104.588C27.6433 103.328 28.1439 102.119 29.035 101.228C29.9261 100.337 31.1346 99.8362 32.3948 99.8362Z" stroke="#4A4A4A" stroke-width="2" stroke-linecap="round" stroke-linejoin="round"/>
<path d="M89.8629 68.2503L96.5401 75.6287H85.3268C85.1826 75.6287 85.0449 75.5693 84.946 75.4644L58.863 47.8H86.9515C87.0993 47.8 87.2402 47.8625 87.3394 47.9721L103.552 65.885" fill="white"/>
<path d="M89.8629 68.2503L96.5401 75.6287H85.3268C85.1826 75.6287 85.0449 75.5693 84.946 75.4644L58.863 47.8H86.9515C87.0993 47.8 87.2402 47.8625 87.3394 47.9721L103.552 65.885" stroke="#4A4A4A" stroke-width="2" stroke-linecap="round" stroke-linejoin="round"/>
<path d="M105.708 68.2503H89.8628" stroke="#4A4A4A" stroke-width="2" stroke-linecap="round" stroke-linejoin="round"/>
<path d="M18.1299 129.8H132.919" stroke="#4A4A4A" stroke-width="2" stroke-linecap="round" stroke-linejoin="round"/>
<path d="M48.2371 113L54.42 83.5H64.9913L58.8144 113H48.2371Z" fill="#4A4A4A" fill-opacity="0.05"/>
<path d="M64.8243 113L70.8966 84H74L75.4043 113H64.8243Z" fill="#4A4A4A" fill-opacity="0.05"/>
<path d="M28 112.5L28.5 108.5L29.48 102.5L32 101H34.3962L29.48 115.279L28 112.5Z" fill="#4A4A4A" fill-opacity="0.05"/>
<path d="M37.1041 101.5L38.6569 105.5L35.5 114.669H32.16L37.1041 101.5Z" fill="#4A4A4A" fill-opacity="0.05"/>
<path d="M95 112.5L95.5 108.5L96.48 102.5L99 101H101.396L96.48 115.279L95 112.5Z" fill="#4A4A4A" fill-opacity="0.05"/>
<path d="M104.104 101.5L105.657 105.5L102.5 114.669H99.16L104.104 101.5Z" fill="#4A4A4A" fill-opacity="0.05"/>
</svg>
