<svg width="150" height="150" viewBox="0 0 150 150" fill="none" xmlns="http://www.w3.org/2000/svg">
<path fill-rule="evenodd" clip-rule="evenodd" d="M32.9771 130H128.66L129.297 48.0987C129.318 47.3934 128.948 46.7361 128.341 46.4003L120.915 42.4227C120.382 42.1448 119.792 42.0003 119.194 42.0003H34.4658L32.9771 130Z" fill="#ECECEC"/>
<path fill-rule="evenodd" clip-rule="evenodd" d="M32.9771 130H128.66L129.297 48.0987C129.318 47.3934 128.948 46.7361 128.341 46.4003L120.915 42.4227C120.382 42.1448 119.792 42.0003 119.194 42.0003H34.4658L32.9771 130Z" stroke="#4A4A4A" stroke-width="2" stroke-linecap="round" stroke-linejoin="round"/>
<path fill-rule="evenodd" clip-rule="evenodd" d="M119.469 42.0001H27.573C26.937 41.9932 26.3245 42.2455 25.8708 42.7012C25.417 43.157 25.1594 43.7787 25.1549 44.4291L23.7517 127.272C23.7383 127.981 24.0042 128.666 24.4898 129.173C24.9755 129.68 25.6401 129.965 26.3338 129.965H118.333" fill="white"/>
<path d="M119.469 42.0001H27.573C26.937 41.9932 26.3245 42.2455 25.8708 42.7012C25.417 43.157 25.1594 43.7787 25.1549 44.4291L23.7517 127.272C23.7383 127.981 24.0042 128.666 24.4898 129.173C24.9755 129.68 25.6401 129.965 26.3338 129.965H117.077" stroke="#4A4A4A" stroke-width="2" stroke-linecap="round" stroke-linejoin="round"/>
<path d="M118.626 129.965L118.798 119.572" stroke="#4A4A4A" stroke-width="2" stroke-linecap="round" stroke-linejoin="round"/>
<path d="M119.09 102.368L120.046 45.5995" stroke="#4A4A4A" stroke-width="2" stroke-linecap="round" stroke-linejoin="round"/>
<path d="M118.936 111.678L118.97 109.866" stroke="#4A4A4A" stroke-width="2" stroke-linecap="round" stroke-linejoin="round"/>
<path fill-rule="evenodd" clip-rule="evenodd" d="M33.0115 119.123H109.685L111.845 50.2458H33.2955L33.0115 119.123Z" fill="#F9F9F9"/>
<path fill-rule="evenodd" clip-rule="evenodd" d="M70.9266 120.188L32.0736 120.065L32.5383 92.6177C50.8045 89.2209 63.7583 88.6929 71.3999 91.0337" fill="#F7F7F7"/>
<path opacity="0.05" fill-rule="evenodd" clip-rule="evenodd" d="M32.8308 118.639C45.7388 116.785 53.3602 115.025 55.6951 113.359C55.6521 113.438 56.1512 113.28 56.1082 113.359C55.48 114.582 54.5506 116.65 53.3459 119.519C44.5168 120.041 38.0686 120.209 34.0011 120.021C31.8928 120.038 31.497 119.563 32.8308 118.639Z" fill="#4A4A4A"/>
<path opacity="0.05" d="M32.9513 104.26L31.1872 98.8041C35.4656 97.4025 39.833 96.3028 44.2587 95.5129L47.4082 100.291C42.5157 101.316 37.688 102.642 32.9513 104.26Z" fill="#4A4A4A"/>
<path opacity="0.05" d="M32.3834 114.723L31.6519 109.03C44.0436 107.366 54.6969 104.48 64.1197 101.84L65.1179 101.567L66.5722 107.111L65.574 107.384C55.9791 110.042 45.1364 113.016 32.3834 114.723Z" fill="#4A4A4A"/>
<path fill-rule="evenodd" clip-rule="evenodd" d="M71.3998 91.0337C77.0707 92.7937 82.658 90.4287 89.0235 90.9357C95.389 91.4428 95.0042 97.6953 98.5409 92.3097C98.5409 92.3097 108.007 90.3561 111.569 94.1489L110.933 120.32L70.9265 120.197" fill="#F7F7F7"/>
<path fill-rule="evenodd" clip-rule="evenodd" d="M86.4618 97.8736C88.2908 99.6379 88.2908 101.767 86.4618 104.26C85.6034 106.633 85.2518 107.959 85.4071 108.238C89.9683 111.881 92.5499 115.773 93.1518 119.912C86.4829 119.91 80.5632 115.725 75.3926 107.358L86.4618 97.8736Z" fill="#4A4A4A" fill-opacity="0.05"/>
<path fill-rule="evenodd" clip-rule="evenodd" d="M82.5867 85.5337C80.8657 83.6769 80.8657 78.793 80.5301 76.9362C80.1944 75.0794 83.1633 66.8162 83.1633 66.8162L90.5036 68.761L98.4205 67.1594L98.584 71.797C98.584 71.797 99.9006 74.5602 101.123 74.5602C102.344 74.5602 102.112 71.8586 104.418 70.4242C106.725 68.9898 107.964 70.4242 108.377 74.217C108.79 78.0098 103.928 78.617 103.928 78.617L103.377 91.5177C103.498 93.8409 102.697 95.3105 101.424 97.1233C99.7543 99.5081 98.3947 99.9745 94.9439 100.256C92.9967 100.448 91.1446 99.3564 90.3315 97.5369C89.2042 96.7185 89.1267 94.6417 89.1698 93.7969L89.2816 91.2449C86.9554 89.4603 84.7208 87.554 82.5867 85.5337Z" fill="white"/>
<path fill-rule="evenodd" clip-rule="evenodd" d="M32.2801 81.7145C34.0872 86.2025 37.4863 86.4401 39.3881 85.6041L38.8459 77.8338C36.8575 77.3962 35.4017 75.6515 35.2919 73.5746C35.1026 69.9842 37.1077 67.309 40.197 70.653C41.8062 74.9562 43.1658 73.0114 46.6509 67.6434C51.7023 71.4978 57.5022 68.2154 57.5022 68.2154C59.5943 69.6811 62.1625 70.2556 64.6619 69.817C67.8888 68.7346 67.5963 64.757 65.6945 62.9178C67.8802 58.0074 60.9185 53.4314 47.5029 55.5874C44.5168 53.6866 33.7344 53.9682 32.5296 64.625" fill="#E0E0E0"/>
<path fill-rule="evenodd" clip-rule="evenodd" d="M62.674 70.4682L57.5108 68.2154C57.5108 68.2154 49.3272 70.0898 48.045 68.9546C46.7628 67.8194 45.0762 66.4202 44.7061 69.5882C44.3361 72.7562 40.3346 72.589 40.3346 72.589C40.3346 72.589 39.3881 66.6754 37.2712 69.201C34.1646 72.9146 38.8717 77.3234 38.8717 77.3234L39.3795 88.0769V91.7905C39.302 93.7353 40.5067 95.6801 41.2382 97.4401C42.572 99.2001 44.8352 100.326 48.3548 99.6753C53.6384 98.7073 53.3803 94.7825 53.3803 94.7825L53.8837 90.4287" fill="white"/>
<path d="M39.7323 69.421C39.7926 71.3306 39.9819 72.149 40.3433 72.589C40.823 73.2065 41.6458 73.4222 42.3569 73.117C44.078 72.2898 43.8973 69.2186 45.4376 68.0482C45.9643 67.7124 46.632 67.7124 47.1587 68.0482C52.0723 71.269 57.4851 68.2242 57.4851 68.2242C59.4523 69.5592 61.8632 70.0256 64.1714 69.5178C66.7013 68.7698 68.0179 64.5898 66.1248 62.7506C68.2933 57.8402 58.1477 51.6803 46.5563 56.0802C43.9231 54.769 36.23 55.3674 33.4763 59.6002" stroke="#4A4A4A" stroke-width="2" stroke-linecap="round" stroke-linejoin="round"/>
<path d="M38.7169 91.6057C37.1937 91.7641 34.0872 92.5561 32.6415 94.7825" stroke="#4A4A4A" stroke-width="2" stroke-linecap="round" stroke-linejoin="round"/>
<path d="M39.7775 69.1834C37.8155 68.673 35.8707 70.389 36.0944 73.2226C36.2951 74.8435 37.4065 76.1936 38.9341 76.6722L38.7513 91.1921C40.24 97.9945 43.751 100.151 47.5631 99.4993C53.2856 98.5313 53.3803 91.2713 53.3803 91.2713V89.7401" stroke="#4A4A4A" stroke-width="2" stroke-linecap="round" stroke-linejoin="round"/>
<path d="M36.9786 91.9125C38.1815 91.5276 38.7883 91.3588 38.7991 91.4059C40.3141 98.0397 43.7912 100.144 47.5631 99.4993C53.2856 98.5313 53.3803 91.2713 53.3803 91.2713V89.7401" stroke="#4A4A4A" stroke-width="2" stroke-linecap="round" stroke-linejoin="round"/>
<path d="M32.9427 83.8266C33.8462 85.3049 36.5139 86.0089 38.1747 85.7185" stroke="#4A4A4A" stroke-width="2" stroke-linecap="round" stroke-linejoin="round"/>
<path fill-rule="evenodd" clip-rule="evenodd" d="M46.78 89.5201C46.78 89.5201 55.153 93.9201 60.9788 87.2057C65.2814 82.0137 64.7651 76.4082 63.328 71.7266" fill="white"/>
<path d="M48.8109 89.5641C51.6679 90.3385 57.0806 90.5761 60.8583 86.4049C64.8145 82.0761 63.3725 77.3976 62.9942 73.1082" stroke="#4A4A4A" stroke-width="2" stroke-linecap="round" stroke-linejoin="round"/>
<path d="M59.1888 74.2082L59.2405 74.9826" stroke="#4A4A4A" stroke-width="1.4" stroke-linecap="round" stroke-linejoin="round"/>
<path d="M47.4512 74.9562L47.5115 75.6954" stroke="#4A4A4A" stroke-width="1.4" stroke-linecap="round" stroke-linejoin="round"/>
<path fill-rule="evenodd" clip-rule="evenodd" d="M55.9533 75.6162C55.9533 75.6162 54.9551 77.6226 51.8141 76.1794Z" fill="white"/>
<path d="M55.7382 76.6722C55.7382 76.6722 54.2408 78.5026 51.6851 76.945" stroke="#4A4A4A" stroke-width="1.4" stroke-linecap="round" stroke-linejoin="round"/>
<path d="M103.764 91.4825C103.764 91.4825 108.928 92.6001 110.984 95.1697" stroke="#4A4A4A" stroke-width="2" stroke-linecap="round" stroke-linejoin="round"/>
<path fill-rule="evenodd" clip-rule="evenodd" d="M81.3303 70.4682C79.5662 67.4322 80.2288 63.4282 80.2288 63.4282C80.2288 63.4282 80.9775 54.6282 94.9353 54.7338C108.575 54.8394 110.089 62.1874 110.089 62.1874C110.744 62.4856 111.37 62.8481 111.957 63.2698C112.972 63.9826 111.481 73.6636 112.103 79.409C109.777 82.2339 106.769 84.3878 103.377 85.6569L103.988 78.1066C105.706 78.3513 107.383 77.4387 108.144 75.845C109.452 73.0994 107.017 67.7842 103.515 71.6298C101.148 75.7394 98.5409 74.9914 98.4118 72.457C98.2999 70.1426 98.756 66.0506 97.1985 66.7458C95.6409 67.441 88.7567 70.0546 83.3353 66.6754" fill="#E0E0E0"/>
<path d="M110.855 81.0722C108.829 83.2826 106.244 84.8757 103.386 85.6745L103.997 78.1242C105.715 78.3689 107.392 77.4563 108.153 75.8626C109.427 72.7474 105.942 67.5906 103.523 71.4626C101.484 75.8626 98.8938 75.2994 98.7647 72.7738C98.6528 70.4594 99.2208 67.0362 97.6632 67.7402C96.1056 68.4442 86.5451 70.1602 82.2683 66.0682" stroke="#4A4A4A" stroke-width="2" stroke-linecap="round" stroke-linejoin="round"/>
<path d="M111.208 61.9982C100.555 49.3614 80.2202 54.1443 79.1187 64.2378C78.9545 65.7695 79.248 67.312 79.9544 68.6642" stroke="#4A4A4A" stroke-width="2" stroke-linecap="round" stroke-linejoin="round"/>
<path d="M103.42 85.6745L103.171 88.8249C102.912 96.3929 98.7733 99.9129 95.1935 99.5257C91.7514 99.4201 88.3093 96.5953 89.5312 90.3825L89.0235 88.8073" stroke="#4A4A4A" stroke-width="2" stroke-linecap="round" stroke-linejoin="round"/>
<path d="M102.895 91.5044C101.874 97.2214 98.3202 99.8639 95.1935 99.5257C92.1418 99.4321 89.0901 97.2011 89.2886 92.3667C89.3055 91.9544 89.3055 91.5101 89.2886 91.0337" stroke="#4A4A4A" stroke-width="2" stroke-linecap="round" stroke-linejoin="round"/>
<path fill-rule="evenodd" clip-rule="evenodd" d="M94.5481 90.6817C94.5481 90.6817 87.6639 93.2249 83.1977 87.5049C79.7556 83.1049 78.5853 77.825 81.4767 72.8354C82.2821 71.4184 82.995 69.9485 83.6108 68.4354" fill="white"/>
<path d="M96.0455 89.7577C96.0455 89.7577 89.428 92.2657 84.0755 87.5841C79.9278 83.9586 78.9123 78.2298 81.0378 73.0026C81.9586 70.7322 82.7589 69.2626 83.2494 67.5818" stroke="#4A4A4A" stroke-width="2" stroke-linecap="round" stroke-linejoin="round"/>
<path d="M84.3336 73.293L84.1443 74.1026" stroke="#4A4A4A" stroke-width="1.4" stroke-linecap="round" stroke-linejoin="round"/>
<path d="M94.9611 75.361L94.832 76.0738" stroke="#4A4A4A" stroke-width="1.4" stroke-linecap="round" stroke-linejoin="round"/>
<path fill-rule="evenodd" clip-rule="evenodd" d="M86.8807 75.7042C86.8807 75.7042 87.4143 77.517 90.3229 76.6898Z" fill="white"/>
<path d="M87.0529 76.109C87.0529 76.109 88.249 77.6226 90.6499 76.6106" stroke="#4A4A4A" stroke-width="1.4" stroke-linecap="round" stroke-linejoin="round"/>
<path d="M88.7223 119.114C87.6466 115.92 85.2802 111.582 81.1841 110.314C77.7246 109.215 74.0622 108.956 70.4877 109.558H72.5357C68.9612 108.956 65.2988 109.215 61.8393 110.314C57.7776 111.555 54.6883 115.841 53.6127 119.035" fill="#ECECEC"/>
<path d="M54.6956 116.993C55.9378 113.78 58.5672 111.314 61.8393 110.341C65.2988 109.242 68.9612 108.983 72.5357 109.584H70.4876C74.0621 108.983 77.7245 109.242 81.184 110.341C84.2862 111.264 86.8108 113.528 88.1231 116.498" stroke="#4A4A4A" stroke-width="2" stroke-linecap="round" stroke-linejoin="round"/>
<path fill-rule="evenodd" clip-rule="evenodd" d="M74.0933 115.304C74.0933 115.304 77.2686 111.784 80.7194 114.081C82.8035 115.501 84.4201 117.531 85.3576 119.906C85.3576 119.906 89.8668 120.179 88.5416 116.862C87.2164 113.544 79.79 109.822 79.79 109.822L75.8918 111.634L74.0933 115.304Z" fill="#4A4A4A" fill-opacity="0.05"/>
<path fill-rule="evenodd" clip-rule="evenodd" d="M59.8171 102.896C56.504 102.685 54.5764 96.9121 58.9565 95.2225L71.9247 91.5529L85.0392 95.0729C89.3419 96.7625 87.4315 102.922 84.3766 102.755" fill="white"/>
<path d="M59.817 102.843C56.2114 103.037 54.7915 96.9825 59.1974 95.2929L72.4668 92.8993L84.6864 95.3457C88.989 96.7977 87.3454 102.738 84.1614 102.676" stroke="#4A4A4A" stroke-width="2" stroke-linecap="round" stroke-linejoin="round"/>
<path fill-rule="evenodd" clip-rule="evenodd" d="M75.8918 111.626C75.668 114.081 74.8505 117.504 72.0194 117.53C67.8114 117.53 67.536 113.377 67.536 113.377L67.6909 111.705L70.3327 108.238" fill="white"/>
<path fill-rule="evenodd" clip-rule="evenodd" d="M59.8773 102.905C60.5331 109.022 65.5974 113.646 71.6149 113.623C77.8016 113.595 83.0032 108.868 83.757 102.588" fill="white"/>
<path d="M66.9681 112.136C67.1144 113.676 67.8286 116.941 70.9007 117.011C73.9728 117.082 75.0226 114.01 75.3496 112.286" stroke="#4A4A4A" stroke-width="2" stroke-linecap="round" stroke-linejoin="round"/>
<path d="M59.8773 102.905C60.3506 107.305 63.1473 110.068 67.0111 111.705M75.014 112.145C79.6436 110.763 83.1718 107.595 83.757 102.57" stroke="#4A4A4A" stroke-width="2" stroke-linecap="round" stroke-linejoin="round"/>
<path fill-rule="evenodd" clip-rule="evenodd" d="M83.2149 90.2505C85.3146 92.9609 84.652 98.0825 82.3544 98.6281C80.0567 99.1737 79.6093 95.2313 79.6093 95.2313C79.6093 95.2313 75.5906 96.7361 72.4755 94.9849C69.7132 96.4633 64.636 95.5305 64.636 95.5305C64.636 95.5305 62.915 99.4817 60.7464 98.3201C59.8859 97.9593 56.3749 85.7977 67.9233 87.4345C70.9609 82.8057 77.6989 84.9353 78.2496 87.4345C80.5386 88.1649 81.8208 88.0241 83.2751 89.9073" fill="#E6E6E6"/>
<path fill-rule="evenodd" clip-rule="evenodd" d="M82.6899 98.6281C80.3149 99.1825 79.833 95.2313 79.833 95.2313C79.833 95.2313 75.6336 97.5105 71.83 95.4513C68.3879 97.5105 64.3778 95.5305 64.3778 95.5305C64.3778 95.5305 62.5621 99.4817 60.3592 98.3201C59.4384 97.9593 57.7776 86.8801 68.1039 87.7601C70.2811 83.6242 76.3048 85.4106 77.3804 87.8921C85.4953 88.4113 85.065 98.0825 82.6899 98.6281Z" stroke="#4A4A4A" stroke-width="2" stroke-linecap="round" stroke-linejoin="round"/>
<path d="M77.0363 99.8777L77.0276 100.546" stroke="#4A4A4A" stroke-width="1.4" stroke-linecap="round" stroke-linejoin="round"/>
<path d="M66.185 99.8777L66.1678 100.546" stroke="#4A4A4A" stroke-width="1.4" stroke-linecap="round" stroke-linejoin="round"/>
<path fill-rule="evenodd" clip-rule="evenodd" d="M73.2069 101.198C72.1849 102.171 70.6187 102.227 69.5325 101.33Z" fill="white"/>
<path d="M73.2069 101.198C72.1849 102.171 70.6187 102.227 69.5325 101.33" stroke="#4A4A4A" stroke-width="1.4" stroke-linecap="round" stroke-linejoin="round"/>
<path d="M44.6889 120.065H110.606L111.69 50.0787H33.1492L32.0649 120.065H39.6032" stroke="#4A4A4A" stroke-width="2" stroke-linecap="round" stroke-linejoin="round"/>
<path opacity="0.05" fill-rule="evenodd" clip-rule="evenodd" d="M33.1922 65.0386C33.1922 65.0386 40.1625 56.4146 47.8213 60.841C53.0877 58.5354 59.4298 59.2306 60.9013 63.5426C61.7618 66.4906 59.1803 67.353 56.134 66.0682C52.623 68.5234 45.0848 65.3202 45.8076 68.1802C46.9349 69.5882 53.0619 70.081 56.3663 68.937C61.5295 71.2514 64.1111 69.6322 65.3589 68.057C66.6066 66.4818 66.9853 64.3346 66.6152 63.8066C66.2452 63.2786 67.8716 56.4146 57.7174 55.1914C47.5631 53.9682 47.3135 57.057 47.3135 57.057C47.3135 57.057 38.5878 53.8186 33.0718 59.7762C32.9742 61.5308 33.0145 63.2906 33.1922 65.0386Z" fill="#4A4A4A"/>
<path opacity="0.05" fill-rule="evenodd" clip-rule="evenodd" d="M44.8095 69.7818C44.8095 69.7818 47.7955 74.4722 55.6005 72.4218C56.6973 72.8598 57.8179 73.2329 58.9566 73.5394C58.9566 73.5394 60.5658 80.201 57.4421 84.4777C55.4596 87.0785 52.6169 88.8496 49.4477 89.4585C49.4477 89.4585 48.4925 91.2889 49.7747 91.8961C51.0569 92.5033 52.494 97.7657 52.494 97.7657L54.1634 89.9689C54.1634 89.9689 62.8548 87.7777 63.0441 81.169C63.2256 77.7011 62.8831 74.2253 62.0287 70.8642C62.0287 70.8642 57.726 70.7234 56.3492 68.937C54.9551 70.0634 49.5338 70.8642 45.7733 68.8402C44.6718 69.2802 44.8095 69.7818 44.8095 69.7818Z" fill="#4A4A4A"/>
<path opacity="0.05" fill-rule="evenodd" clip-rule="evenodd" d="M60.8497 91.9577C60.8497 91.9577 61.082 94.8793 63.5259 92.0369C66.0387 92.3449 68.9043 93.2073 71.0039 91.5617C74.2826 92.4417 78.0259 91.9577 78.8262 91.3329C80.9947 92.1073 82.449 92.7321 82.449 89.9689C83.671 91.2097 83.8603 93.7089 83.8603 93.7089C83.8603 93.7089 83.8603 97.0705 83.2149 97.2993C82.5695 97.5281 81.4164 98.7073 81.227 97.1057C81.0087 96.0043 80.4398 95.0079 79.6092 94.2721L76.7867 95.5833L71.6235 94.2193L67.8458 95.9001L63.9132 94.5273L62.3986 97.3433L60.1096 97.6865L59.3868 93.2073L60.7206 92.2305" fill="#4A4A4A"/>
<path opacity="0.05" fill-rule="evenodd" clip-rule="evenodd" d="M62.3986 97.3433L65.1781 96.7009C65.1781 96.7009 69.0333 97.8273 71.5375 97.1409C73.5868 97.6728 75.7252 97.7389 77.8021 97.3345C78.4292 98.2127 79.3117 98.8656 80.3235 99.2001C80.3235 99.2001 79.4629 108 72.9573 110.878C72.9332 112.605 72.9964 114.332 73.1466 116.052L75.0312 113.588C75.0312 113.588 74.971 111.722 75.3496 111.626C75.7282 111.529 82.0101 108.81 83.6537 102.702L86.9754 100.335C86.9754 100.335 88.2317 95.2137 86.1148 94.3689C83.9979 93.5241 83.9893 95.8033 83.9893 95.8033L82.6469 97.6689C82.6469 97.6689 80.6677 97.0441 80.4698 95.8561C80.2718 94.6681 79.7985 94.6769 79.7985 94.6769C77.8772 95.0586 75.9207 95.2238 73.9641 95.1697L71.8645 94.4921L68.56 95.0201L64.6446 94.5801L62.3986 97.3433Z" fill="#4A4A4A"/>
<path opacity="0.05" fill-rule="evenodd" clip-rule="evenodd" d="M97.0264 69.113C97.0264 69.113 93.3262 72.0434 86.3817 71.8058C83.8861 76.681 84.6606 82.3658 85.6932 83.9586C86.7259 85.5513 90.6843 87.6985 96.4241 87.2761C99.0573 89.3969 94.4362 89.9161 94.4362 89.9161L92.8615 93.0401V99.2881C92.8615 99.2881 89.7722 96.5601 90.1422 90.6025C88.0683 89.5201 83.1461 88.3585 82.1909 84.3369C81.2357 80.3154 80.6247 76.4874 82.0102 73.1346C82.7725 71.3016 83.4361 69.4274 83.998 67.5202C83.998 67.5202 91.476 70.4858 97.0264 69.113Z" fill="#4A4A4A"/>
<path opacity="0.05" fill-rule="evenodd" clip-rule="evenodd" d="M88.8083 56.2738C88.8083 56.2738 82.7846 62.1082 85.4436 64.5546C88.1027 67.001 92.5688 67.7578 97.6373 66.1914C99.978 66.4818 98.954 69.5706 98.954 69.5706L96.2175 68.8138C96.2175 68.8138 86.4935 69.3946 84.6433 68.4002L83.387 69.4474L82.7071 71.4362C82.7071 71.4362 78.5422 67.1242 80.1944 63.1554C81.3415 60.6724 83.2978 58.675 85.7276 57.5058L88.8083 56.2738Z" fill="#4A4A4A"/>
<path d="M139.837 130H11" stroke="#4A4A4A" stroke-width="2" stroke-linecap="round" stroke-linejoin="round"/>
</svg>
