<svg width="166" height="165" viewBox="0 0 166 165" fill="none" xmlns="http://www.w3.org/2000/svg">
<path d="M83 165C128.563 165 165.5 128.063 165.5 82.5C165.5 36.9365 128.563 0 83 0C37.4365 0 0.5 36.9365 0.5 82.5C0.5 128.063 37.4365 165 83 165Z" fill="white"/>
<path d="M98.8751 64.8599C98.8751 64.8599 104.195 69.4799 111.645 74.4999C119.095 79.5199 122.345 93.3299 120.895 103.02C119.445 112.71 114.835 121.12 102.995 122.89C91.2351 126.79 61.9051 125.11 54.2851 118.91C46.6651 112.7 43.8751 107.62 43.8951 103.02C43.9151 98.4199 42.1351 86.1099 53.2051 76.6599C64.2751 67.2099 71.4651 62.5299 71.4651 57.9499C69.2751 48.6899 64.8851 46.1299 64.8751 39.8799C64.8551 33.6299 70.7751 33.3199 73.7351 33.4799C76.6951 33.6499 86.2151 45.2299 86.2151 45.2299C86.2151 45.2299 97.0151 39.1799 100.135 45.7299C102.575 50.2299 89.6251 55.2699 93.6851 59.3899L98.8651 64.8699L98.8751 64.8599Z" fill="#F7F7F7"/>
<path opacity="0.05" d="M68.2048 34.9399C68.2048 34.9399 69.5948 45.0799 79.1148 44.9099C88.6348 44.7399 82.1348 39.7199 82.1348 39.7199C82.1348 39.7199 73.8148 34.1099 68.2248 34.9099L68.2048 34.9299V34.9399Z" fill="#4A4949"/>
<path d="M86.2246 45.2199C83.9846 43.6999 79.1046 37.4999 76.7846 35.6499C68.9246 29.3999 63.0846 38.2099 65.4046 43.7699C66.5846 46.1599 71.5946 53.6499 71.4746 57.9399" stroke="#4A4949" stroke-width="2" stroke-linecap="round" stroke-linejoin="round"/>
<path d="M93.8651 55.9599C95.0251 54.5399 97.9851 51.7099 98.9551 50.3299C100.715 47.8699 99.8651 44.8299 97.7751 43.3699C93.4551 40.3399 83.3151 51.8699 70.5051 39.8899" stroke="#4A4949" stroke-width="2" stroke-linecap="round" stroke-linejoin="round"/>
<path d="M69.9849 61.22C65.5749 67.72 58.2249 71.45 51.0149 79.3C40.0049 91.29 33.8449 125.8 83.2649 125.43C118.995 125.42 123.655 107.27 120.835 91.76C118.165 74.91 100.615 67.93 98.0849 64.4" stroke="#4A4949" stroke-width="2" stroke-linecap="round" stroke-linejoin="round"/>
<path d="M91.2448 59.15C94.3948 57.78 97.2148 62.58 94.2448 70.33C91.9448 76.32 94.3848 79.26 94.3848 79.26" stroke="#4A4949" stroke-width="2" stroke-linecap="round" stroke-linejoin="round"/>
<path d="M71.4756 57.9399C74.6056 60.3299 87.4856 62.3199 91.0156 59.2599" stroke="#4A4949" stroke-width="2" stroke-linecap="round" stroke-linejoin="round"/>
<path d="M95.5146 102.183C95.2144 102.8 94.807 103.335 94.3176 103.727C93.8024 104.17 93.2482 104.507 92.6634 104.716C92.0313 104.959 91.4714 105.105 90.9457 105.179L91.0049 105.897C91.0411 106.335 90.9363 106.645 90.731 106.832C90.4999 107.072 90.2566 107.162 89.9568 107.177C89.6569 107.192 89.3664 107.075 89.1457 106.833C88.895 106.592 88.7782 106.271 88.7469 105.892L88.6778 105.055C87.6183 104.862 86.5987 104.544 85.7088 104.096C85.1319 103.793 84.6845 103.478 84.3028 103.109C83.9003 102.73 83.6872 102.337 83.651 101.898C83.6205 101.529 83.6947 101.212 83.8701 100.907C84.0281 100.633 84.2558 100.473 84.5664 100.468C84.686 100.458 84.8205 100.507 84.9458 100.567C85.0513 100.629 85.16 100.73 85.2878 100.82C85.8555 101.255 86.4158 101.6 86.9454 101.817C87.4651 102.035 88.0098 102.19 88.557 102.256C88.5235 101.606 88.5141 100.884 88.5038 100.153C88.4919 99.4013 88.4768 98.6098 88.4849 97.7362C87.8921 97.6045 87.325 97.4206 86.8136 97.1819C86.2657 96.9863 85.7726 96.726 85.3402 96.3503C84.9435 96.0419 84.6033 95.5683 84.3215 94.9493C84.0213 94.352 83.8523 93.7639 83.8013 93.146C83.7141 92.0896 83.8227 91.2177 84.1629 90.4772C84.504 89.7467 84.9786 89.1757 85.5951 88.7435C86.0538 88.4648 86.5555 88.2227 87.1113 88.0263C87.647 87.8316 88.1894 87.7165 88.7816 87.5974C88.8555 86.5478 88.8892 85.8627 88.9683 85.6053C89.1008 85.0224 89.4266 84.7146 89.9174 84.7041C90.1989 84.711 90.4588 84.82 90.7285 85.0486C90.999 85.2871 91.1433 85.5762 91.1746 85.9549C91.1845 86.0745 91.1802 86.2655 91.1509 86.5188L91.0929 87.3965L91.4617 87.3661L91.7831 87.3697C91.9832 87.3632 92.2473 87.4016 92.528 87.3985C92.8119 87.4352 93.0884 87.5027 93.3765 87.5893C93.638 87.7182 93.8638 87.9002 94.0704 88.0939C94.2513 88.3399 94.3656 88.6314 94.3961 89.0002C94.4265 89.3689 94.3499 89.6562 94.1895 89.9002C94.0115 90.1758 93.8013 90.3035 93.5198 90.2967C93.2383 90.2898 92.9684 90.3021 92.7143 90.2628C92.4303 90.2261 92.1579 90.2084 91.9063 90.1991L91.3748 90.2029L90.8267 90.2481C90.7308 91.8815 90.6996 93.5698 90.7015 95.4159C91.6048 95.6624 92.3678 95.9105 92.9963 96.2299C93.6247 96.5492 94.1343 96.8885 94.5692 97.2941C94.9533 97.6938 95.2611 98.14 95.48 98.6035C95.6814 99.0987 95.8147 99.6194 95.8608 100.178C95.9275 100.985 95.7833 101.669 95.4805 102.256L95.5171 102.213L95.5146 102.183ZM87.5274 91.1226C87.0489 91.4029 86.6725 91.7049 86.3982 92.0286C86.1255 92.3722 86.0331 92.7109 86.0643 93.0896C86.0956 93.4683 86.352 93.7783 86.8168 94.061C87.2617 94.3454 87.8346 94.5991 88.5237 94.8031L88.5453 92.6339C88.5599 91.9604 88.5762 91.3069 88.6348 90.6799C88.2435 90.8026 87.8556 90.965 87.5191 91.1433L87.5274 91.1226ZM93.1533 99.3475C92.8828 99.109 92.5807 98.853 92.2138 98.6625C91.8269 98.4737 91.3329 98.3238 90.7675 98.1598L90.8049 100.314C90.8168 101.066 90.8503 101.715 90.8706 102.325C91.6654 102.23 92.3175 101.985 92.8668 101.589C93.3886 101.225 93.6289 100.733 93.5788 100.125C93.5582 99.876 93.4072 99.6276 93.1633 99.3467L93.1533 99.3475Z" fill="#DBDBDB"/>
<path d="M87.1752 66.07C84.6052 74.93 91.2352 78.88 90.7352 67.47C90.6552 65.55 89.9652 62.02 91.0352 59.25" stroke="#4A4949" stroke-width="2" stroke-linecap="round" stroke-linejoin="round"/>
<path opacity="0.04" d="M79.1259 44.94C79.1259 44.94 75.2959 45.01 76.1659 49.54C77.0359 54.06 77.6959 53.63 76.2659 59.39C72.7059 73.65 58.9359 75.91 53.6559 87.23C48.1459 99.05 53.9159 119.94 80.2759 124.96C81.0059 125.17 80.8959 126.23 80.1459 126.32C72.0959 125.49 52.0459 123.41 48.3159 114.04C43.9259 103.03 39.1859 93.41 49.2659 81.04C59.3459 68.68 76.1659 63.63 70.5359 51.76C64.9059 39.89 62.6759 36.39 68.2359 34.94C73.7859 33.5 80.4259 39.39 86.2559 45.2C82.1559 50.01 79.1559 44.92 79.1559 44.92V44.94H79.1259Z" fill="#4A4A4A"/>
</svg>
