<svg width="166" height="165" viewBox="0 0 166 165" fill="none" xmlns="http://www.w3.org/2000/svg">
<g clip-path="url(#clip0_1918_67643)">
<path d="M82.5898 165C128.153 165 165.09 128.063 165.09 82.5C165.09 36.9365 128.153 0 82.5898 0C37.0264 0 0.0898438 36.9365 0.0898438 82.5C0.0898438 128.063 37.0264 165 82.5898 165Z" fill="white"/>
<path d="M80.8199 30.79L71.6699 4.52002" stroke="#444444" stroke-width="2" stroke-linecap="round" stroke-linejoin="round"/>
<path d="M82.5901 25.03C75.5401 25.03 69.8301 30.74 69.8301 37.79C69.8301 40.96 72.3701 46.09 74.2801 48.32H89.5401C91.5601 46.06 95.3501 41.06 95.3501 37.79C95.3501 30.74 89.6401 25.03 82.5901 25.03ZM85.6601 44.29H78.4401C77.3601 43.06 75.6401 39.5 75.6401 37.73C75.6401 33.89 78.7501 30.78 82.5901 30.78C86.4301 30.78 89.5401 33.89 89.5401 37.73C89.5401 39.56 86.8201 43.05 85.6701 44.29H85.6601Z" fill="#EFEFEF"/>
<path d="M74.7008 51.95C74.1908 49.79 73.9908 47.65 74.8208 46.75C77.3308 44.03 87.6908 44.03 90.2008 46.75C90.9308 47.54 90.8608 49.29 90.4908 51.17" fill="#E4E4E4"/>
<path d="M82.5905 126.5C103.18 126.5 119.871 109.809 119.871 89.2201C119.871 68.6309 103.18 51.9401 82.5905 51.9401C62.0014 51.9401 45.3105 68.6309 45.3105 89.2201C45.3105 109.809 62.0014 126.5 82.5905 126.5Z" fill="#EDEDED"/>
<path d="M52.9805 66.5801C59.7905 57.6801 70.5205 51.9501 82.5905 51.9501C86.5965 51.9501 90.4548 52.5818 94.0714 53.7512M48.9205 73.2001C46.6105 78.0601 45.3105 83.4901 45.3105 89.2301C45.3105 109.82 62.0005 126.51 82.5905 126.51C86.5965 126.51 90.4548 125.878 94.0714 124.709" stroke="#444444" stroke-width="2" stroke-linecap="round" stroke-linejoin="round"/>
<path d="M50.4512 70.33C50.6112 70.06 50.7812 69.78 50.9512 69.51" stroke="#444444" stroke-width="2" stroke-linecap="round" stroke-linejoin="round"/>
<path d="M74.7008 51.95C74.1908 49.79 73.9908 47.65 74.8208 46.75C77.3308 44.03 87.6908 44.03 90.2008 46.75C90.9308 47.54 90.8608 49.29 90.4908 51.17" stroke="#444444" stroke-width="2" stroke-linecap="round" stroke-linejoin="round"/>
<path d="M82.5905 118.83C98.9436 118.83 112.2 105.573 112.2 89.22C112.2 72.8668 98.9436 59.61 82.5905 59.61C66.2373 59.61 52.9805 72.8668 52.9805 89.22C52.9805 105.573 66.2373 118.83 82.5905 118.83Z" fill="white"/>
<path d="M82.5913 93.45C84.9275 93.45 86.8213 91.5562 86.8213 89.22C86.8213 86.8838 84.9275 84.99 82.5913 84.99C80.2552 84.99 78.3613 86.8838 78.3613 89.22C78.3613 91.5562 80.2552 93.45 82.5913 93.45Z" fill="#EDEDED"/>
<path d="M72.8901 46.09C70.9801 43.86 69.8301 40.96 69.8301 37.8C69.8301 30.75 75.5401 25.04 82.5901 25.04C89.6401 25.04 95.3501 30.75 95.3501 37.8C95.3501 41.07 94.1201 44.05 92.1001 46.31" stroke="#444444" stroke-width="2" stroke-linecap="round" stroke-linejoin="round"/>
<path d="M82.5913 93.45C84.9275 93.45 86.8213 91.5562 86.8213 89.22C86.8213 86.8838 84.9275 84.99 82.5913 84.99C80.2552 84.99 78.3613 86.8838 78.3613 89.22C78.3613 91.5562 80.2552 93.45 82.5913 93.45Z" stroke="#DEDEDE" stroke-width="2" stroke-linecap="round" stroke-linejoin="round"/>
<path d="M77.3806 42.33C76.3006 41.1 75.6406 39.49 75.6406 37.73C75.6406 33.89 78.7506 30.78 82.5906 30.78C86.4306 30.78 89.5406 33.89 89.5406 37.73C89.5406 39.56 88.8306 41.23 87.6706 42.47" stroke="#444444" stroke-width="2" stroke-linecap="round" stroke-linejoin="round"/>
<path d="M70.1113 73.46L79.9813 85.9" stroke="#DEDEDE" stroke-width="2" stroke-linecap="round" stroke-linejoin="round"/>
<path d="M82.5215 94.53L82.5915 103.35" stroke="#DEDEDE" stroke-width="2" stroke-linecap="round" stroke-linejoin="round"/>
<path opacity="0.05" d="M82.2012 65.5801V70.7801" stroke="#444444" stroke-width="2" stroke-linecap="round" stroke-linejoin="round"/>
<path opacity="0.05" d="M61.9199 77.74L66.4199 80.34" stroke="#444444" stroke-width="2" stroke-linecap="round" stroke-linejoin="round"/>
<path opacity="0.05" d="M62.3105 101.38L66.8105 98.78" stroke="#444444" stroke-width="2" stroke-linecap="round" stroke-linejoin="round"/>
<path opacity="0.05" d="M82.9805 112.86V107.67" stroke="#444444" stroke-width="2" stroke-linecap="round" stroke-linejoin="round"/>
<path opacity="0.05" d="M103.26 100.71L98.7598 98.11" stroke="#444444" stroke-width="2" stroke-linecap="round" stroke-linejoin="round"/>
<path opacity="0.05" d="M102.871 77.0701L98.3711 79.6601" stroke="#444444" stroke-width="2" stroke-linecap="round" stroke-linejoin="round"/>
<path opacity="0.05" d="M89.5405 60.4301L52.9805 89.2201C52.9805 89.2201 54.6205 102.88 59.4305 107.67L105.75 70.7801C105.75 70.7801 96.4905 61.2601 89.5405 60.4401V60.4301Z" fill="#4A4A4A"/>
<path opacity="0.05" d="M120.284 89.4111C120.497 69.7564 111.585 53.7248 100.378 53.6036C89.1714 53.4823 79.9142 69.3172 79.7015 88.9719C79.4888 108.627 88.4012 124.658 99.6079 124.779C110.815 124.901 120.072 109.066 120.284 89.4111Z" fill="#4A4A4A"/>
<path opacity="0.05" d="M111.6 86.65L72.8203 117.19C72.8203 117.19 79.3603 118.66 85.4303 118.84C85.4303 118.84 102.22 117.27 109.29 103.35C111.99 100.12 115.12 89.48 111.6 86.65Z" fill="#4A4A4A"/>
<path d="M82.5905 118.83C98.9436 118.83 112.2 105.573 112.2 89.22C112.2 72.8668 98.9436 59.61 82.5905 59.61C66.2373 59.61 52.9805 72.8668 52.9805 89.22C52.9805 105.573 66.2373 118.83 82.5905 118.83Z" stroke="#DEDEDE" stroke-width="2" stroke-linecap="round" stroke-linejoin="round"/>
<path d="M120.336 89.4111C120.521 69.7564 113.852 53.7383 105.441 53.6335C97.0291 53.5287 90.0604 69.3771 89.8756 89.0317C89.6908 108.686 96.3598 124.705 104.771 124.809C113.183 124.914 120.151 109.066 120.336 89.4111Z" fill="#F6F6F6"/>
<path opacity="0.05" d="M117.471 89.6586C117.624 73.3782 112.646 60.1168 106.352 60.0384C100.059 59.96 94.8326 73.0943 94.6795 89.3747C94.5264 105.655 99.5044 118.917 105.798 118.995C112.092 119.073 117.318 105.939 117.471 89.6586Z" fill="#4A4A4A"/>
<path d="M120.336 89.4111C120.521 69.7564 113.852 53.7383 105.441 53.6335C97.0291 53.5287 90.0604 69.3771 89.8756 89.0317C89.6908 108.686 96.3598 124.705 104.771 124.809C113.183 124.914 120.151 109.066 120.336 89.4111Z" stroke="#444444" stroke-width="2" stroke-linecap="round" stroke-linejoin="round"/>
<path d="M108.037 117.77C107.063 118.57 106.029 118.99 104.969 118.98C99.1306 118.91 94.5257 105.65 94.6734 89.3701C94.8298 73.0901 99.6867 59.9601 105.517 60.0301C106.516 60.0401 107.48 60.4401 108.384 61.1701" stroke="#DEDEDE" stroke-width="2" stroke-linecap="round" stroke-linejoin="round"/>
<path d="M84.2207 30.79L93.3707 4.52002" stroke="#444444" stroke-width="2" stroke-linecap="round" stroke-linejoin="round"/>
</g>
<defs>
<clipPath id="clip0_1918_67643">
<rect width="165" height="165" fill="white" transform="translate(0.0898438)"/>
</clipPath>
</defs>
</svg>
